<?xml version="1.0" encoding="UTF-8"?>
<svg width="128px" height="128px" viewBox="0 0 128 128" version="1.1" xmlns="http://www.w3.org/2000/svg" xmlns:xlink="http://www.w3.org/1999/xlink">
    <title>128x128@2x</title>
    <g id="128x128" stroke="none" stroke-width="1" fill="none" fill-rule="evenodd">
        <circle id="椭圆形" fill="#665BF6" cx="64" cy="64" r="48"></circle>
        <path d="M72.0617947,60.1025291 L77.4946961,70.9779161 C79.7160317,75.424506 77.9121067,80.8299277 73.4655167,83.0512633 C72.2165566,83.675193 70.8395666,84 69.4434328,84 L58.5680458,84 C53.5974831,84 49.5680458,79.9705627 49.5680458,75 C49.5680458,73.6017224 49.8938507,72.2226777 50.5196202,70.9722407 L55.9621058,60.0968538 C58.1865758,55.651831 63.593268,53.8517174 68.0382907,56.0761874 C69.7797306,56.9476747 71.1915354,58.3604752 72.0617947,60.1025291 Z" id="三角形" fill="#FFFFFF" transform="translate(64, 64) rotate(-90) translate(-64, -64)"></path>
        <circle id="椭圆形" fill="#3D367B" cx="64" cy="64" r="8"></circle>
        <path d="M47.5705534,55 L48.4294466,55 C49.4363954,55 49.9763797,55.1392384 50.4652686,55.4006991 C50.9541574,55.6621597 51.3378403,56.0458426 51.5993009,56.5347314 C51.8607616,57.0236203 52,57.5636046 52,58.5705534 L52,80.4294466 C52,81.4363954 51.8607616,81.9763797 51.5993009,82.4652686 C51.3378403,82.9541574 50.9541574,83.3378403 50.4652686,83.5993009 C49.9763797,83.8607616 49.4363954,84 48.4294466,84 L47.5705534,84 C46.5636046,84 46.0236203,83.8607616 45.5347314,83.5993009 C45.0458426,83.3378403 44.6621597,82.9541574 44.4006991,82.4652686 C44.1392384,81.9763797 44,81.4363954 44,80.4294466 L44,58.5705534 C44,57.5636046 44.1392384,57.0236203 44.4006991,56.5347314 C44.6621597,56.0458426 45.0458426,55.6621597 45.5347314,55.4006991 C46.0236203,55.1392384 46.5636046,55 47.5705534,55 Z" id="矩形" fill="#FFFFFF"></path>
        <circle id="椭圆形" fill="#FFFFFF" cx="48" cy="48" r="4"></circle>
    </g>
</svg>