<?xml version="1.0" encoding="UTF-8"?>
<svg width="512px" height="512px" viewBox="0 0 512 512" version="1.1" xmlns="http://www.w3.org/2000/svg" xmlns:xlink="http://www.w3.org/1999/xlink">
    <title>编组</title>
    <defs>
        <linearGradient x1="-4.49590773%" y1="31.2011957%" x2="43.9221563%" y2="66.6362101%" id="linearGradient-1">
            <stop stop-color="#7266B7" offset="0%"></stop>
            <stop stop-color="#3E3680" offset="100%"></stop>
        </linearGradient>
    </defs>
    <g id="页面-1" stroke="none" stroke-width="1" fill="none" fill-rule="evenodd">
        <g id="512x512" transform="translate(0, -1)" fill-rule="nonzero">
            <g id="编组" transform="translate(0, 1)">
                <rect id="矩形" fill="url(#linearGradient-1)" x="0" y="2.84217094e-14" width="511" height="511" rx="114"></rect>
                <path d="M401.957021,177.581814 C442.116221,236.3433 432.698054,315.367367 378.454181,361.239126 C326.18591,405.45923 251.351506,404.982463 199.18542,360.796414 L301.031059,301.609244 C346.623162,283.747524 344.63053,229.140718 300.07732,210.989532 L199.117296,152.176964 C199.230837,152.086152 199.344377,151.995339 199.457917,151.904526 C262.455746,98.9153223 354.729938,111.226117 401.957021,177.581814 Z" id="路径" fill="#685AFF"></path>
                <path d="M198.101392,151.844026 C197.988668,151.934744 197.875943,152.025462 197.763219,152.11618 C163.596548,183.436548 148.040623,221.827245 151.095446,267.288272 C153.547195,303.705854 170.793981,336.39833 197.898488,360.773106 C184.94649,368.54083 171.977584,376.070418 158.991769,383.361873 C151.65343,387.489539 145.893229,390.046651 141.711166,391.033208 C118.935263,396.391236 95.2801129,381.660911 88.6857536,360.245808 C87.1076164,355.142924 86.3298201,347.437569 86.3518887,337.129744 C86.4425442,279.637251 86.4425442,222.139088 86.3518887,164.635255 C88.0094091,135.514798 115.384454,114.763069 143.503479,122.536463 C158.890317,126.788866 181.209687,142.318643 198.101392,151.844026 Z" id="路径" fill="#557CFF"></path>
                <path d="M197.750961,152.385686 L298.737857,211.311298 C279.794296,209.036617 264.871131,213.489305 253.968363,224.669362 C230.510374,248.741175 239.777728,289.293051 271.702397,300.484481 C280.333756,303.498434 289.663573,304.038671 299.691849,302.105192 L197.819104,361.406126 C198.614097,361.428873 198.636811,361.514174 197.887246,361.662028 C170.579217,337.214893 153.20293,304.425366 150.732771,267.899676 C147.655011,222.303694 163.327741,183.799031 197.750961,152.385686 Z" id="路径" fill="#4DD2FF"></path>
            </g>
        </g>
    </g>
</svg>